<svg width="43" height="43" viewBox="0 0 43 43" fill="none" xmlns="http://www.w3.org/2000/svg">
<path d="M20.2436 5.75V15.2039H6.65439C8.08975 10.7819 11.7324 7.39229 16.3021 6.31802C17.6009 6.01268 18.9198 5.82334 20.2436 5.75Z" fill="#CD8AF6"/>
<path d="M22.7564 5.75V25.2776H36.9357C37.4351 22.2973 37.3394 19.2422 36.6485 16.2906C35.4904 11.3423 31.6353 7.47872 26.6979 6.31802C25.3991 6.01268 24.0802 5.82334 22.7564 5.75Z" fill="#CD8AF6"/>
<path d="M36.3456 27.796H22.7564V37.25C24.0802 37.1767 25.3991 36.9873 26.6979 36.682C31.2677 35.6077 34.9103 32.218 36.3456 27.796Z" fill="#CD8AF6"/>
<path d="M20.2436 37.25V17.7223H6.06428C5.56491 20.7026 5.66064 23.7578 6.35147 26.7094C7.50962 31.6577 11.3647 35.5213 16.3021 36.682C17.6009 36.9873 18.9198 37.1767 20.2436 37.25Z" fill="#CD8AF6"/>
</svg>
